<svg width="25" height="24" viewBox="0 0 25 24" fill="none" xmlns="http://www.w3.org/2000/svg">
<g clip-path="url(#clip0_14_1700)">
<path d="M12.21 0.0996094H18.2783C18.6969 0.0996094 19.0361 0.438878 19.0361 0.857422V4.88477C19.0361 5.30331 18.6969 5.64258 18.2783 5.64258H12.9668V8.46484L13.0332 8.48828C13.4925 8.65563 13.9015 8.94287 14.1885 9.34668L23.6807 22.7041C23.8447 22.9346 23.8664 23.2381 23.7363 23.4902C23.6062 23.7416 23.3465 23.9003 23.0635 23.9004H1.35742C1.07432 23.9004 0.814767 23.7416 0.68457 23.4902C0.554776 23.238 0.576173 22.9347 0.740234 22.7041L10.2314 9.34668C10.5185 8.9428 10.9275 8.65562 11.3867 8.48828L11.4531 8.46484V0.857422C11.4531 0.43891 11.7918 0.0996094 12.21 0.0996094ZM12.1914 16.4746C12.1088 16.5677 12.0197 16.7441 11.9395 16.9219C11.8571 17.1042 11.7775 17.3038 11.7178 17.4541C11.5452 17.8881 11.3468 18.3859 11.0488 18.7764C10.7538 19.1629 10.3677 19.4355 9.81738 19.4355C9.26931 19.4355 8.88454 19.1633 8.59082 18.7773C8.29439 18.3877 8.09724 17.891 7.92578 17.458C7.86548 17.3061 7.78513 17.1029 7.70215 16.9189C7.62143 16.74 7.53073 16.5626 7.44727 16.4707L7.41602 16.4355L7.36816 16.4375C7.21025 16.445 7.09753 16.4867 6.99219 16.54L6.96973 16.5508L6.95605 16.5713L2.93652 22.2275L2.82422 22.3857H21.5957L21.4844 22.2275L17.46 16.5654L17.4463 16.5459L17.4248 16.5342C17.3105 16.4743 17.1783 16.4356 16.9697 16.4355C16.9307 16.4355 16.8884 16.4388 16.8438 16.4541C16.7991 16.4694 16.7582 16.4954 16.7158 16.5312C16.6346 16.6 16.5353 16.7191 16.3848 16.916C16.0434 17.363 15.5545 17.9971 14.585 17.9971C13.6219 17.9969 13.1366 17.3664 12.7969 16.9219C12.6691 16.7545 12.5784 16.643 12.5049 16.5713C12.4292 16.4975 12.3627 16.4569 12.2842 16.4424L12.2295 16.4326L12.1914 16.4746ZM12.21 9.85645C11.9289 9.85645 11.6415 9.97636 11.4658 10.2236L8.10352 14.9551L8.03906 15.0459L8.13574 15.1006C8.44059 15.2727 8.67625 15.5555 8.86816 15.8828C9.06011 16.2102 9.2038 16.5741 9.33301 16.9004C9.43434 17.1566 9.59632 17.5658 9.73535 17.7842L9.81934 17.916L9.90332 17.7842C10.0438 17.5656 10.2081 17.1531 10.3105 16.8955C10.4823 16.4632 10.6799 15.967 10.9766 15.5781C11.2702 15.1933 11.654 14.9219 12.2012 14.9219C13.1708 14.9219 13.6586 15.5551 13.999 16.002L14 16.0029C14.1508 16.1997 14.2498 16.319 14.3311 16.3877C14.3736 16.4236 14.4152 16.4495 14.46 16.4648C14.5044 16.48 14.5461 16.4824 14.585 16.4824C14.625 16.4824 14.6684 16.4801 14.7139 16.4648C14.7594 16.4495 14.8014 16.424 14.8447 16.3877C14.9277 16.3183 15.0283 16.1974 15.1807 15.998C15.4216 15.6821 15.7394 15.2779 16.2451 15.0664L16.3604 15.0176L16.2881 14.916L12.9541 10.2236C12.7781 9.97652 12.491 9.8565 12.21 9.85645ZM12.9668 4.12793H17.5215V1.61426H12.9668V4.12793Z" fill="#666666" stroke="white" stroke-width="0.2"/>
</g>
<defs>
<clipPath id="clip0_14_1700">
<rect width="24" height="24" fill="white" transform="translate(0.5)"/>
</clipPath>
</defs>
</svg>
