<svg width="24" height="24" viewBox="0 0 24 24" fill="none" xmlns="http://www.w3.org/2000/svg">
<g clip-path="url(#clip0_14_1749)">
<path d="M18.1656 6.68384C17.0025 6.68384 16.0562 7.6301 16.0562 8.79321C16.0562 9.95632 17.0025 10.9026 18.1656 10.9026C19.3287 10.9026 20.275 9.95632 20.275 8.79321C20.275 7.6301 19.3287 6.68384 18.1656 6.68384ZM18.1656 9.49634C17.7779 9.49634 17.4625 9.18092 17.4625 8.79321C17.4625 8.40551 17.7779 8.09009 18.1656 8.09009C18.5533 8.09009 18.8687 8.40551 18.8687 8.79321C18.8687 9.18092 18.5533 9.49634 18.1656 9.49634Z" fill="#666666"/>
<path d="M13.1734 3.25848C12.0103 3.25848 11.064 4.20475 11.064 5.36786C11.064 6.53097 12.0103 7.47723 13.1734 7.47723C14.3365 7.47723 15.2827 6.53097 15.2827 5.36786C15.2827 4.20475 14.3365 3.25848 13.1734 3.25848ZM13.1734 6.07098C12.7857 6.07098 12.4702 5.75556 12.4702 5.36786C12.4702 4.98016 12.7857 4.66473 13.1734 4.66473C13.5611 4.66473 13.8765 4.98016 13.8765 5.36786C13.8765 5.75556 13.5611 6.07098 13.1734 6.07098Z" fill="#666666"/>
<path d="M7.64526 9.08624C8.80837 9.08624 9.75464 8.13998 9.75464 6.97687C9.75464 5.81376 8.80837 4.86749 7.64526 4.86749C6.48215 4.86749 5.53589 5.81376 5.53589 6.97687C5.53589 8.13998 6.48211 9.08624 7.64526 9.08624ZM7.64526 6.27374C8.03297 6.27374 8.34839 6.58916 8.34839 6.97687C8.34839 7.36457 8.03297 7.67999 7.64526 7.67999C7.25756 7.67999 6.94214 7.36457 6.94214 6.97687C6.94214 6.58916 7.25751 6.27374 7.64526 6.27374Z" fill="#666666"/>
<path d="M7.84546 12.3281C7.84546 11.165 6.89919 10.2188 5.73608 10.2188C4.57297 10.2188 3.62671 11.165 3.62671 12.3281C3.62671 13.4912 4.57297 14.4375 5.73608 14.4375C6.89919 14.4375 7.84546 13.4912 7.84546 12.3281ZM5.73608 13.0312C5.34838 13.0312 5.03296 12.7158 5.03296 12.3281C5.03296 11.9404 5.34838 11.625 5.73608 11.625C6.12379 11.625 6.43921 11.9404 6.43921 12.3281C6.43921 12.7158 6.12383 13.0312 5.73608 13.0312Z" fill="#666666"/>
<path d="M22.7856 6.0795C21.7554 4.26666 20.2633 2.74491 18.4705 1.67883C16.6236 0.580547 14.5055 0 12.3455 0C9.14015 0 6.12669 1.24823 3.86015 3.51473C1.59369 5.78123 0.345459 8.79469 0.345459 12C0.345459 15.2053 1.59369 18.2188 3.86015 20.4853C6.12669 22.7518 9.14015 24 12.3455 24C12.7544 24 13.1672 23.9791 13.5725 23.9379C14.5739 23.8361 15.396 23.2962 15.8873 22.4176C16.3787 21.5391 16.4083 20.556 15.9707 19.6493C15.3382 18.339 15.2845 17.1971 15.8233 16.5163C16.2482 15.9794 16.957 15.8327 17.4768 15.8043C19.7799 15.6782 21.7346 14.4448 22.8396 12.4203C23.9447 10.3958 23.925 8.08472 22.7856 6.0795ZM21.6053 11.7465C20.7261 13.3574 19.2326 14.2998 17.3999 14.4001C16.2407 14.4636 15.3141 14.8936 14.7206 15.6436C13.8344 16.7633 13.8285 18.4461 14.7042 20.2605C14.94 20.7492 14.9248 21.2578 14.66 21.7313C14.3952 22.2048 13.9699 22.4841 13.4302 22.5389C13.0721 22.5753 12.7072 22.5938 12.3455 22.5938C6.50404 22.5938 1.75171 17.8414 1.75171 12C1.75171 6.15858 6.50404 1.40625 12.3455 1.40625C16.1495 1.40625 19.6814 3.46313 21.5629 6.77428C22.4696 8.36981 22.4846 10.1356 21.6053 11.7465Z" fill="#666666"/>
<path d="M10.8697 16.4832C10.2039 16.1159 9.4738 15.9399 8.81281 15.9876C8.05203 16.0425 7.43736 16.3971 7.12658 16.9605C6.81575 17.5239 6.8436 18.233 7.20294 18.9058C7.51485 19.49 8.05339 20.014 8.71916 20.3813C9.3342 20.7206 9.97414 20.885 10.5567 20.885C11.3909 20.885 12.1072 20.5477 12.4623 19.9041C12.7731 19.3407 12.7453 18.6317 12.3859 17.9588C12.074 17.3745 11.5355 16.8505 10.8697 16.4832ZM11.231 19.2247C11.0695 19.5174 10.2754 19.6338 9.39847 19.15C8.97416 18.916 8.62606 18.5855 8.44339 18.2434C8.31256 17.9984 8.28139 17.7785 8.35789 17.6398C8.43439 17.5011 8.63713 17.4102 8.91411 17.3902C8.95147 17.3875 8.98944 17.3862 9.02821 17.3862C9.39036 17.3862 9.80708 17.5031 10.1904 17.7145C10.6146 17.9486 10.9628 18.279 11.1455 18.6212C11.2763 18.8661 11.3075 19.0862 11.231 19.2247Z" fill="#666666"/>
</g>
<defs>
<clipPath id="clip0_14_1749">
<rect width="24" height="24" fill="white"/>
</clipPath>
</defs>
</svg>
