<svg width="24" height="24" viewBox="0 0 24 24" fill="none" xmlns="http://www.w3.org/2000/svg">
<g clip-path="url(#clip0_14_1737)">
<path d="M12 0C5.38206 0 0 5.38206 0 12C0 18.6179 5.38206 24 12 24C18.6179 24 24 18.6179 24 12C24 5.38206 18.6179 0 12 0ZM12 1.6C17.7532 1.6 22.4062 6.24676 22.4062 12C22.4062 17.7532 17.7532 22.4062 12 22.4062C6.24676 22.4062 1.6 17.7532 1.6 12C1.6 6.24676 6.24676 1.6 12 1.6ZM11.9891 5.60469C11.7777 5.60841 11.5764 5.69562 11.4292 5.84727C11.2819 5.99892 11.2006 6.20269 11.2031 6.41406V7.0875C9.9114 7.32982 8.80625 8.16161 8.80625 9.60312C8.80625 10.6031 9.25706 11.4119 9.8625 11.8828C10.4679 12.3537 11.1516 12.5625 11.7516 12.7625C12.3516 12.9625 12.8695 13.1537 13.1641 13.3828C13.4586 13.6119 13.6 13.8047 13.6 14.4047C13.6 15.738 10.4062 15.738 10.4062 14.4047C10.4086 14.2981 10.3897 14.1922 10.3505 14.0931C10.3114 13.9939 10.2528 13.9036 10.1783 13.8274C10.1038 13.7512 10.0148 13.6907 9.91657 13.6494C9.81833 13.608 9.71283 13.5867 9.60625 13.5867C9.49967 13.5867 9.39417 13.608 9.29593 13.6494C9.1977 13.6907 9.10871 13.7512 9.03419 13.8274C8.95966 13.9036 8.90111 13.9939 8.86197 14.0931C8.82283 14.1922 8.80389 14.2981 8.80625 14.4047C8.80625 15.8451 9.91238 16.6784 11.2031 16.9219V17.5922C11.2008 17.6987 11.2197 17.8047 11.2588 17.9038C11.298 18.0029 11.3565 18.0933 11.4311 18.1694C11.5056 18.2456 11.5946 18.3062 11.6928 18.3475C11.791 18.3888 11.8965 18.4101 12.0031 18.4101C12.1097 18.4101 12.2152 18.3888 12.3134 18.3475C12.4117 18.3062 12.5007 18.2456 12.5752 18.1694C12.6497 18.0933 12.7083 18.0029 12.7474 17.9038C12.7865 17.8047 12.8055 17.6987 12.8031 17.5922V16.9219C14.0941 16.6786 15.2016 15.8453 15.2016 14.4047C15.2016 13.4047 14.7492 12.5959 14.1437 12.125C13.5383 11.6541 12.8547 11.4438 12.2547 11.2437C11.6547 11.0437 11.1367 10.8541 10.8422 10.625C10.5476 10.3959 10.4062 10.2031 10.4062 9.60312C10.4063 8.26979 13.6 8.26979 13.6 9.60312C13.6 9.81551 13.6844 10.0192 13.8345 10.1694C13.9847 10.3195 14.1884 10.4039 14.4008 10.4039C14.6132 10.4039 14.8168 10.3195 14.967 10.1694C15.1172 10.0192 15.2016 9.81551 15.2016 9.60312C15.2016 8.16378 14.0937 7.33282 12.8031 7.08906V6.41406C12.8044 6.30703 12.7842 6.20083 12.7436 6.10175C12.7031 6.00268 12.6431 5.91274 12.5672 5.83727C12.4913 5.7618 12.401 5.70233 12.3017 5.66238C12.2024 5.62243 12.0961 5.60281 11.9891 5.60469Z" fill="#666666"/>
</g>
<defs>
<clipPath id="clip0_14_1737">
<rect width="24" height="24" fill="white"/>
</clipPath>
</defs>
</svg>
