<svg width="25" height="24" viewBox="0 0 25 24" fill="none" xmlns="http://www.w3.org/2000/svg">
<g clip-path="url(#clip0_14_1722)">
<path d="M19.3392 5.64057C18.8686 4.3532 18.0297 3.20355 16.9373 2.36191C15.6558 1.37458 14.1214 0.852722 12.5 0.852722C10.8786 0.852722 9.34417 1.37458 8.06266 2.36191C6.97033 3.20355 6.13136 4.3532 5.66083 5.64057C2.80535 5.69701 0.5 8.03738 0.5 10.9061C0.5 12.2807 1.0265 13.5816 1.98251 14.5689C2.77643 15.3888 3.79549 15.92 4.90385 16.1021C4.90385 16.1021 4.90624 22.4845 4.90971 22.5129C4.94426 22.8689 5.24426 23.1473 5.60936 23.1473H19.3906C19.7558 23.1473 20.0559 22.8687 20.0902 22.5124C20.0937 22.4841 20.0961 16.1021 20.0961 16.1021C21.2045 15.92 22.2235 15.3888 23.0174 14.5689C23.9734 13.5816 24.4999 12.2807 24.4999 10.9061C24.5 8.03738 22.1946 5.69701 19.3392 5.64057ZM18.6875 21.7232H6.31254V20.1004H18.6875V21.7232ZM19.3688 14.7637C18.9901 14.7767 18.6899 15.0875 18.6899 15.4664V18.6942H6.31014V15.4664C6.31014 15.0875 6.00986 14.7767 5.63121 14.7637C3.54242 14.6919 1.90625 12.9974 1.90625 10.9061C1.90625 9.49514 2.70429 8.16915 3.94685 7.50221C4.60521 7.14882 5.36233 6.99591 6.10624 7.06083C6.44285 7.08976 6.75372 6.87526 6.84457 6.5492C7.54886 4.0232 9.87447 2.25897 12.5 2.25897C15.1255 2.25897 17.4511 4.0232 18.1554 6.5492C18.2463 6.87521 18.5565 7.09013 18.8937 7.06083C19.9187 6.9714 20.9503 7.29985 21.7332 7.96674C24.3571 10.2015 22.8278 14.6448 19.3688 14.7637Z" fill="#666666"/>
</g>
<defs>
<clipPath id="clip0_14_1722">
<rect width="24" height="24" fill="white" transform="translate(0.5)"/>
</clipPath>
</defs>
</svg>
