<svg width="25" height="24" viewBox="0 0 25 24" fill="none" xmlns="http://www.w3.org/2000/svg">
<g clip-path="url(#clip0_14_1704)">
<path d="M12.7829 17.4009C12.6267 17.5571 12.3734 17.5572 12.2172 17.4009L10.9524 16.1362C10.8774 16.0612 10.7757 16.019 10.6696 16.019H8.88099C8.66008 16.019 8.48099 15.8399 8.48099 15.619V13.8304C8.48099 13.7243 8.43885 13.6226 8.36384 13.5476L7.09907 12.2828C6.94286 12.1266 6.94286 11.8733 7.09907 11.7171L8.36384 10.4524C8.43885 10.3773 8.48099 10.2756 8.48099 10.1695V8.38093C8.48099 8.16002 8.66008 7.98093 8.88099 7.98093H10.6696C10.7757 7.98093 10.8774 7.93879 10.9524 7.86378L12.2172 6.59901C12.3734 6.4428 12.6267 6.4428 12.7829 6.59901L14.0476 7.86377C14.1226 7.93879 14.2244 7.98093 14.3304 7.98093H16.1191C16.34 7.98093 16.5191 8.16002 16.5191 8.38093V10.1696C16.5191 10.2757 16.5613 10.3774 16.6363 10.4524L17.901 11.7171C18.0572 11.8733 18.0572 12.1266 17.901 12.2828L16.6363 13.5475C16.5613 13.6226 16.5191 13.7243 16.5191 13.8304V15.619C16.5191 15.8399 16.34 16.019 16.1191 16.019H14.3304C14.2244 16.019 14.1226 16.0612 14.0476 16.1362L12.7829 17.4009ZM9.88737 14.2126C9.88737 14.4336 10.0665 14.6126 10.2874 14.6126H11.2521C11.3582 14.6126 11.46 14.6548 11.535 14.7298L12.2172 15.412C12.3734 15.5682 12.6267 15.5682 12.7829 15.412L13.4651 14.7298C13.5401 14.6548 13.6418 14.6126 13.7479 14.6126H14.7127C14.9336 14.6126 15.1127 14.4336 15.1127 14.2126V13.2479C15.1127 13.1418 15.1548 13.04 15.2299 12.965L15.9121 12.2828C16.0683 12.1266 16.0683 11.8733 15.9121 11.7171L15.2299 11.0349C15.1548 10.9599 15.1127 10.8582 15.1127 10.7521V9.78731C15.1127 9.56639 14.9336 9.38731 14.7127 9.38731H13.7479C13.6418 9.38731 13.5401 9.34516 13.4651 9.27015L12.7829 8.58795C12.6267 8.43174 12.3734 8.43174 12.2172 8.58795L11.535 9.27015C11.46 9.34516 11.3582 9.38731 11.2521 9.38731H10.2874C10.0665 9.38731 9.88737 9.56639 9.88737 9.78731V10.7521C9.88737 10.8582 9.84523 10.9599 9.77021 11.0349L9.08801 11.7171C8.9318 11.8733 8.9318 12.1266 9.08801 12.2828L9.77021 12.965C9.84523 13.04 9.88737 13.1418 9.88737 13.2479V14.2126Z" fill="#666666"/>
<path d="M11.7867 12.2828C11.6305 12.1266 11.6305 11.8733 11.7867 11.7171L12.2153 11.2885C12.3715 11.1323 12.6248 11.1323 12.781 11.2885L13.2097 11.7172C13.3659 11.8734 13.3659 12.1266 13.2097 12.2828L12.7811 12.7115C12.6249 12.8677 12.3716 12.8677 12.2154 12.7115L11.7867 12.2828Z" fill="#666666"/>
<path d="M17.2996 6.18772C17.2996 5.96681 17.4787 5.78772 17.6996 5.78772H18.306C18.5269 5.78772 18.706 5.96681 18.706 6.18772V6.79419C18.706 7.0151 18.5269 7.19419 18.306 7.19419H17.6996C17.4787 7.19419 17.2996 7.0151 17.2996 6.79419V6.18772Z" fill="#666666"/>
<path d="M6.29407 6.18772C6.29407 5.96681 6.47315 5.78772 6.69407 5.78772H7.30044C7.52135 5.78772 7.70044 5.96681 7.70044 6.18772V6.79419C7.70044 7.0151 7.52135 7.19419 7.30044 7.19419H6.69407C6.47315 7.19419 6.29407 7.0151 6.29407 6.79419V6.18772Z" fill="#666666"/>
<path d="M17.2996 17.1996C17.2996 16.9786 17.4787 16.7996 17.6996 16.7996H18.306C18.5269 16.7996 18.706 16.9786 18.706 17.1996V17.806C18.706 18.0269 18.5269 18.206 18.306 18.206H17.6996C17.4787 18.206 17.2996 18.0269 17.2996 17.806V17.1996Z" fill="#666666"/>
<path d="M6.29407 17.1996C6.29407 16.9786 6.47315 16.7996 6.69407 16.7996H7.30044C7.52135 16.7996 7.70044 16.9786 7.70044 17.1996V17.806C7.70044 18.0269 7.52135 18.206 7.30044 18.206H6.69407C6.47315 18.206 6.29407 18.0269 6.29407 17.806V17.1996Z" fill="#666666"/>
<path d="M12.7829 23.7172C12.6267 23.8734 12.3734 23.8734 12.2172 23.7172L9.47851 20.9785C9.34361 20.8436 9.13197 20.8252 8.96628 20.9198C5.47851 22.9104 1.59036 19.0191 3.58013 15.5337C3.67473 15.368 3.65638 15.1564 3.52146 15.0214L0.782847 12.2829C0.626635 12.1267 0.626634 11.8734 0.782845 11.7172L3.52151 8.97851C3.65641 8.84361 3.67477 8.63197 3.58021 8.46628C1.58964 4.97851 5.48091 1.09032 8.96625 3.08012C9.13196 3.17472 9.34364 3.15638 9.47856 3.02146L12.2172 0.282843C12.3734 0.126633 12.6267 0.126633 12.7829 0.282843L15.5215 3.02151C15.6564 3.15641 15.8681 3.17477 16.0338 3.0802C19.5215 1.08959 23.4097 4.98091 21.4199 8.46625C21.3253 8.63196 21.3436 8.84364 21.4785 8.97856L24.2171 11.7172C24.3733 11.8734 24.3733 12.1267 24.2171 12.2829L21.4785 15.0215C21.3436 15.1564 21.3252 15.3681 21.4198 15.5338C23.4104 19.0215 19.5192 22.9097 16.0338 20.9199C15.8681 20.8253 15.6564 20.8437 15.5215 20.9786L12.7829 23.7172ZM9.00755 19.0843C9.16376 18.9281 9.41703 18.9281 9.57324 19.0843L12.2172 21.7283C12.3734 21.8845 12.6267 21.8845 12.7829 21.7283L15.4194 19.0917C15.5785 18.9326 15.8363 18.9373 15.9958 19.096C16.5616 19.6587 17.0931 20.0346 18.0028 20.0426C20.0693 20.0561 21.2101 17.6875 20.1191 16.0891C20.0161 15.9381 19.5321 15.4403 19.4029 15.3111C19.3231 15.2314 19.3661 15.145 19.4458 15.0652L22.2282 12.2829C22.3844 12.1267 22.3844 11.8734 22.2282 11.7172L19.5843 9.07324C19.4281 8.91703 19.4281 8.66376 19.5843 8.50755L19.7986 8.2932C21.394 6.72387 20.2415 3.94291 18.0027 3.95754C17.0915 3.9661 16.5617 4.34118 15.9957 4.9042C15.8363 5.06285 15.5785 5.06751 15.4194 4.90845L12.7828 2.27183C12.6266 2.11562 12.3733 2.11562 12.2171 2.27183L9.58064 4.90837C9.42155 5.06745 9.16371 5.06276 9.0042 4.90409C8.43845 4.34132 7.90682 3.96554 6.99721 3.95754C4.93078 3.94404 3.78988 6.31258 4.88088 7.91103C4.98391 8.06198 5.46786 8.55976 5.5971 8.68899C5.67685 8.76873 5.63391 8.8551 5.55416 8.93485L2.77178 11.7172C2.61557 11.8734 2.61557 12.1267 2.77178 12.2829L5.40828 14.9194C5.56736 15.0785 5.56266 15.3363 5.404 15.4958C4.84123 16.0616 4.46544 16.5933 4.45744 17.5028C4.44281 19.7417 7.22434 20.8941 8.79315 19.2987L9.00755 19.0843Z" fill="#666666"/>
</g>
<defs>
<clipPath id="clip0_14_1704">
<rect width="24" height="24" fill="white" transform="translate(0.5)"/>
</clipPath>
</defs>
</svg>
