<svg width="24" height="24" viewBox="0 0 24 24" fill="none" xmlns="http://www.w3.org/2000/svg">
<path d="M18.6789 5.69253C18.554 5.63284 18.4653 5.51645 18.4408 5.38024C18.1922 3.99506 17.5026 2.72613 16.459 1.75425C15.2444 0.623016 13.6608 0 12.0001 0C10.3394 0 8.75583 0.623016 7.54111 1.75425C6.49758 2.72613 5.808 3.99506 5.55934 5.38025C5.53489 5.51646 5.44615 5.63284 5.3213 5.69252C3.06913 6.76909 1.59736 9.06508 1.59736 11.5989C1.59736 15.2073 4.533 18.1429 8.14134 18.1429C9.02407 18.1429 9.88896 17.9647 10.6881 17.627C10.9684 17.5085 11.2969 17.7042 11.2969 18.0086V23.6C11.2969 23.8209 11.476 24 11.6969 24H12.3031C12.524 24 12.7031 23.8209 12.7031 23.6V18.0086C12.7031 17.7042 13.0316 17.5085 13.3119 17.627C14.111 17.9647 14.9759 18.1429 15.8587 18.1429C19.467 18.1429 22.4026 15.2072 22.4026 11.5989C22.4028 9.06508 20.931 6.76906 18.6789 5.69253ZM15.8588 16.7366C14.7772 16.7366 13.7297 16.3962 12.8596 15.7699C12.7595 15.6979 12.7032 15.5807 12.7032 15.4574V11.5936C12.7032 11.445 12.7856 11.3087 12.9171 11.2396L15.5029 9.87995C15.6984 9.77714 15.7736 9.53528 15.6708 9.33975L15.3886 8.80316C15.2858 8.60763 15.0439 8.53247 14.8484 8.63528L13.2894 9.45502C13.023 9.59507 12.7032 9.40191 12.7032 9.10098V7.39516C12.7032 7.17424 12.5241 6.99516 12.3032 6.99516H11.697C11.4761 6.99516 11.297 7.17424 11.297 7.39516V12.2178C11.297 12.5188 10.9772 12.7119 10.7108 12.5719L9.15177 11.7521C8.95624 11.6493 8.71439 11.7245 8.61158 11.92L8.32943 12.4566C8.22661 12.6521 8.30178 12.894 8.49731 12.9968L11.0831 14.3564C11.2146 14.4256 11.297 14.5619 11.297 14.7105V15.4574C11.297 15.5807 11.2406 15.6979 11.1406 15.7699C10.2705 16.3962 9.22302 16.7366 8.14144 16.7366C5.30845 16.7366 3.0037 14.4318 3.0037 11.5989C3.0037 9.43275 4.37367 7.48795 6.41269 6.75947L6.59809 6.69324C6.74691 6.64007 6.85048 6.50427 6.86239 6.34668L6.87722 6.15037C6.97463 4.86277 7.55077 3.66698 8.49956 2.78334C9.45305 1.8953 10.6963 1.40625 12.0001 1.40625C13.3039 1.40625 14.5471 1.8953 15.5007 2.7833C16.4495 3.66694 17.0256 4.86267 17.123 6.15033L17.1378 6.34664C17.1498 6.50422 17.2533 6.64002 17.4021 6.69319L17.5875 6.75942C19.6266 7.48791 20.9965 9.4327 20.9965 11.5988C20.9965 14.4318 18.6917 16.7366 15.8588 16.7366Z" fill="#666666"/>
</svg>
