<svg width="25" height="24" viewBox="0 0 25 24" fill="none" xmlns="http://www.w3.org/2000/svg">
<g clip-path="url(#clip0_14_1732)">
<path d="M20.4858 5.80439C21.1064 5.19694 21.4925 4.35079 21.4925 3.41583C21.4925 1.57186 19.9924 0.0717163 18.1484 0.0717163C16.3045 0.0717163 14.8043 1.57186 14.8043 3.41583C14.8043 4.3478 15.1879 5.1915 15.805 5.79858C15.0134 6.11245 14.2865 6.58697 13.665 7.20628C13.19 7.67967 12.7992 8.21465 12.5 8.79347C12.2008 8.21461 11.81 7.67962 11.335 7.20628C10.7135 6.58692 9.98656 6.11245 9.19503 5.79858C9.81214 5.19155 10.1957 4.3478 10.1957 3.41587C10.1957 1.5719 8.69553 0.0717632 6.85156 0.0717632C5.00759 0.0717632 3.50745 1.57186 3.50745 3.41583C3.50745 4.35079 3.89361 5.19694 4.51423 5.80439C2.16598 6.74756 0.5 9.06717 0.5 11.7666C0.5 13.4394 1.25131 14.9954 2.56128 16.0357L12.5 23.9283L22.4387 16.0357C23.7487 14.9954 24.5 13.4393 24.5 11.7666C24.5 9.06717 22.834 6.74756 20.4858 5.80439ZM16.2106 3.41583C16.2106 2.34726 17.0799 1.47797 18.1484 1.47797C19.217 1.47797 20.0863 2.34726 20.0863 3.41583C20.0863 4.48383 19.2178 5.35279 18.1501 5.35369C18.1495 5.35369 18.1489 5.35369 18.1483 5.35369C18.1479 5.35369 18.1475 5.35369 18.1472 5.35369C17.0792 5.35298 16.2106 4.48397 16.2106 3.41583ZM12.5 13.3561C11.8027 13.3561 11.2354 12.7888 11.2354 12.0915C11.2354 11.3942 11.8027 10.8269 12.5 10.8269C13.1974 10.8269 13.7646 11.3942 13.7646 12.0915C13.7646 12.7888 13.1974 13.3561 12.5 13.3561ZM6.85156 1.47797C7.92008 1.47797 8.78942 2.34726 8.78942 3.41583C8.78942 4.48397 7.92078 5.35298 6.85283 5.35369C6.85245 5.35369 6.85208 5.35369 6.8517 5.35369C6.85109 5.35369 6.85048 5.35369 6.84988 5.35369C5.78211 5.35279 4.91366 4.48383 4.91366 3.41583C4.9137 2.34726 5.78305 1.47797 6.85156 1.47797ZM1.90625 11.7666C1.90625 9.01537 4.11683 6.7694 6.83398 6.75998C6.83933 6.75994 6.84458 6.75994 6.84992 6.75994C6.85048 6.75994 6.851 6.75998 6.85156 6.75998C6.85198 6.75998 6.85241 6.75994 6.85278 6.75994C8.17016 6.76026 9.40883 7.27209 10.3423 8.20233C10.7761 8.63461 11.119 9.13331 11.363 9.67528C10.4573 10.1032 9.82902 11.0251 9.82902 12.0915C9.82902 12.781 10.0917 13.4103 10.5222 13.8846C9.32745 14.572 8.52064 15.8609 8.52064 17.3354V18.9725L3.43578 14.9345C2.46373 14.1625 1.90625 13.0079 1.90625 11.7666ZM9.92698 20.0893V17.3354C9.92698 15.9166 11.0812 14.7623 12.5 14.7623C13.9188 14.7623 15.073 15.9166 15.073 17.3354V20.0893L12.5 22.1325L9.92698 20.0893ZM21.5642 14.9344L16.4793 18.9725V17.3354C16.4793 15.8609 15.6725 14.5721 14.4778 13.8846C14.9083 13.4102 15.1709 12.7809 15.1709 12.0914C15.1709 11.0251 14.5426 10.1031 13.637 9.67523C13.881 9.13331 14.2239 8.63456 14.6577 8.20228C15.5912 7.27195 16.8298 6.76017 18.1472 6.75989C18.1476 6.75989 18.1481 6.75994 18.1484 6.75994C18.149 6.75994 18.1495 6.75989 18.1501 6.75989C18.1554 6.75989 18.1607 6.75989 18.166 6.75994C20.8832 6.76936 23.0938 9.01533 23.0938 11.7666C23.0938 13.0079 22.5362 14.1625 21.5642 14.9344Z" fill="#666666"/>
</g>
<defs>
<clipPath id="clip0_14_1732">
<rect width="24" height="24" fill="white" transform="translate(0.5)"/>
</clipPath>
</defs>
</svg>
