<svg width="25" height="24" viewBox="0 0 25 24" fill="none" xmlns="http://www.w3.org/2000/svg">
<g clip-path="url(#clip0_14_1764)">
<path d="M24.25 9.32812C24.3881 9.32812 24.5 9.2162 24.5 9.07812V8.17188C24.5 8.0338 24.3884 7.92188 24.2503 7.92188C23.2527 7.92188 20.0731 7.92188 19.1848 7.92188C19.0772 7.92188 18.9839 7.85302 18.9498 7.75093L16.8138 1.34282C16.7798 1.24073 16.6842 1.17188 16.5766 1.17188H2.29688C2.1588 1.17188 2.04688 1.2838 2.04688 1.42188V7.67188C2.04688 7.80995 1.93495 7.92188 1.79688 7.92188H0.75C0.611929 7.92188 0.5 8.0338 0.5 8.17188V9.07812C0.5 9.2162 0.611929 9.32812 0.75 9.32812H1.79688C1.93495 9.32812 2.04688 9.44005 2.04688 9.57812V14.4219C2.04688 14.5599 1.93495 14.6719 1.79688 14.6719H0.75C0.611929 14.6719 0.5 14.7838 0.5 14.9219V15.8281C0.5 15.9662 0.611929 16.0781 0.75 16.0781H1.79688C1.93495 16.0781 2.04688 16.1901 2.04688 16.3281V22.5781C2.04688 22.7162 2.1588 22.8281 2.29688 22.8281H22.7031C22.8412 22.8281 22.9531 22.7162 22.9531 22.5781V16.3281C22.9531 16.1901 23.0651 16.0781 23.2031 16.0781H24.25C24.3881 16.0781 24.5 15.9662 24.5 15.8281V14.9219C24.5 14.7838 24.3881 14.6719 24.25 14.6719H23.2031C23.0651 14.6719 22.9531 14.5599 22.9531 14.4219V9.57812C22.9531 9.44005 23.0651 9.32812 23.2031 9.32812H24.25ZM3.45312 2.82812C3.45312 2.69005 3.56505 2.57812 3.70312 2.57812H15.563C15.6706 2.57812 15.7661 2.64698 15.8002 2.74907L17.4148 7.59282C17.4687 7.7547 17.3482 7.92188 17.1776 7.92188H11.2031C11.0651 7.92188 10.9531 7.80995 10.9531 7.67188V6.375C10.9531 5.16019 9.96481 4.17188 8.75 4.17188C7.53519 4.17188 6.54688 5.16019 6.54688 6.375V7.67188C6.54688 7.80995 6.43495 7.92188 6.29688 7.92188H3.70312C3.56505 7.92188 3.45312 7.80995 3.45312 7.67188V2.82812ZM9.54688 6.375V7.67188C9.54688 7.80995 9.43495 7.92188 9.29688 7.92188H8.20312C8.06505 7.92188 7.95312 7.80995 7.95312 7.67188V6.375C7.95312 5.93559 8.31059 5.57812 8.75 5.57812C9.18941 5.57812 9.54688 5.93559 9.54688 6.375ZM9.54688 21.1719C9.54688 21.3099 9.43495 21.4219 9.29688 21.4219H8.20312C8.06505 21.4219 7.95312 21.3099 7.95312 21.1719V19.875C7.95312 19.4356 8.31059 19.0781 8.75 19.0781C9.18941 19.0781 9.54688 19.4356 9.54688 19.875V21.1719ZM17.0469 21.1719C17.0469 21.3099 16.9349 21.4219 16.7969 21.4219H15.7031C15.5651 21.4219 15.4531 21.3099 15.4531 21.1719V19.875C15.4531 19.4356 15.8106 19.0781 16.25 19.0781C16.6894 19.0781 17.0469 19.4356 17.0469 19.875V21.1719ZM21.5469 21.1719C21.5469 21.3099 21.4349 21.4219 21.2969 21.4219H18.7031C18.5651 21.4219 18.4531 21.3099 18.4531 21.1719V19.875C18.4531 18.6602 17.4648 17.6719 16.25 17.6719C15.0352 17.6719 14.0469 18.6602 14.0469 19.875V21.1719C14.0469 21.3099 13.9349 21.4219 13.7969 21.4219H11.2031C11.0651 21.4219 10.9531 21.3099 10.9531 21.1719V19.875C10.9531 18.6602 9.96481 17.6719 8.75 17.6719C7.53519 17.6719 6.54688 18.6602 6.54688 19.875V21.1719C6.54688 21.3099 6.43495 21.4219 6.29688 21.4219H3.70312C3.56505 21.4219 3.45312 21.3099 3.45312 21.1719V16.3281C3.45312 16.1901 3.56505 16.0781 3.70312 16.0781H21.2969C21.4349 16.0781 21.5469 16.1901 21.5469 16.3281V21.1719ZM8.20312 14.6719C8.06505 14.6719 7.95312 14.5599 7.95312 14.4219V13.125C7.95312 12.6856 8.31059 12.3281 8.75 12.3281C9.18941 12.3281 9.54688 12.6856 9.54688 13.125V14.4219C9.54688 14.5599 9.43495 14.6719 9.29688 14.6719H8.20312ZM15.7031 14.6719C15.5651 14.6719 15.4531 14.5599 15.4531 14.4219V13.125C15.4531 12.6856 15.8106 12.3281 16.25 12.3281C16.6894 12.3281 17.0469 12.6856 17.0469 13.125V14.4219C17.0469 14.5599 16.9349 14.6719 16.7969 14.6719H15.7031ZM21.5469 14.4219C21.5469 14.5599 21.4349 14.6719 21.2969 14.6719H18.7031C18.5651 14.6719 18.4531 14.5599 18.4531 14.4219V13.125C18.4531 11.9102 17.4648 10.9219 16.25 10.9219C15.0352 10.9219 14.0469 11.9102 14.0469 13.125V14.4219C14.0469 14.5599 13.9349 14.6719 13.7969 14.6719H11.2031C11.0651 14.6719 10.9531 14.5599 10.9531 14.4219V13.125C10.9531 11.9102 9.96481 10.9219 8.75 10.9219C7.53519 10.9219 6.54688 11.9102 6.54688 13.125V14.4219C6.54688 14.5599 6.43495 14.6719 6.29688 14.6719H3.70312C3.56505 14.6719 3.45312 14.5599 3.45312 14.4219V9.57812C3.45312 9.44005 3.56505 9.32812 3.70312 9.32812H21.2969C21.4349 9.32812 21.5469 9.44005 21.5469 9.57812V14.4219Z" fill="#666666"/>
</g>
<defs>
<clipPath id="clip0_14_1764">
<rect width="24" height="24" fill="white" transform="translate(0.5)"/>
</clipPath>
</defs>
</svg>
