<svg width="25" height="24" viewBox="0 0 25 24" fill="none" xmlns="http://www.w3.org/2000/svg">
<path d="M19.9023 14.1005C20.0291 14.1005 20.1591 14.1428 20.2588 14.2313C20.3602 14.3215 20.4238 14.4543 20.4238 14.6219C20.4238 16.6626 22.0676 18.3182 24.0781 18.3182C24.2431 18.3182 24.3738 18.3827 24.4619 18.4843C24.5482 18.5839 24.5898 18.7137 24.5898 18.8397C24.5898 18.9658 24.5483 19.0955 24.4619 19.1952C24.3738 19.2969 24.2432 19.3622 24.0781 19.3622C22.0667 19.3622 20.424 21.0041 20.4238 23.0155C20.4238 23.2935 20.1987 23.538 19.9023 23.538C19.606 23.5379 19.3809 23.2935 19.3809 23.0155C19.3807 21.0051 17.7251 19.3622 15.6846 19.3622C15.5168 19.3622 15.3832 19.2976 15.293 19.1962C15.2047 19.0966 15.1631 18.9663 15.1631 18.8397C15.1632 18.7131 15.2045 18.5828 15.293 18.4833C15.3832 18.3818 15.5168 18.3182 15.6846 18.3182C17.7242 18.3182 19.3809 16.6616 19.3809 14.6219C19.3809 14.4544 19.4446 14.3215 19.5459 14.2313C19.6455 14.1428 19.7756 14.1005 19.9023 14.1005ZM8.55664 6.70105C8.6826 6.70114 8.81252 6.74267 8.91211 6.82898C9.01361 6.91714 9.07812 7.04787 9.07812 7.21277C9.07819 11.1364 12.2814 14.3397 16.2051 14.3397C16.37 14.3398 16.5008 14.4041 16.5889 14.5057C16.6752 14.6054 16.7158 14.7352 16.7158 14.8612C16.7158 14.9873 16.6752 15.117 16.5889 15.2167C16.5008 15.3183 16.37 15.3826 16.2051 15.3827C12.2816 15.3827 9.07812 18.5859 9.07812 22.538C9.07803 22.832 8.85063 23.0592 8.55664 23.0594C8.27869 23.0594 8.03428 22.8343 8.03418 22.538C8.03418 18.5857 4.84501 15.3827 0.921875 15.3827C0.754142 15.3827 0.620477 15.3191 0.530273 15.2177C0.441821 15.118 0.400403 14.9879 0.400391 14.8612C0.400391 14.7345 0.441846 14.6044 0.530273 14.5048C0.620477 14.4033 0.754142 14.3397 0.921875 14.3397C4.84522 14.3397 8.03411 11.1366 8.03418 7.21277C8.03418 7.04765 8.09945 6.91714 8.20117 6.82898C8.30086 6.74261 8.43059 6.70105 8.55664 6.70105ZM19.9004 16.7958C19.4473 17.6786 18.7343 18.3879 17.8506 18.8397C18.7236 19.2912 19.445 20.0003 19.8994 20.8612C20.3409 19.9891 21.0518 19.2793 21.9238 18.8378C21.0635 18.3845 20.3441 17.6649 19.9014 16.7928L19.9004 16.7958ZM8.55566 10.0741C7.73016 12.2859 5.98106 14.0359 3.78125 14.8612C5.98161 15.6877 7.73137 17.45 8.55664 19.663C9.39367 17.4509 11.1432 15.6881 13.3428 14.8612C11.1312 14.0357 9.38102 12.2858 8.55566 10.0741ZM16.5703 0.462769C16.697 0.462772 16.8271 0.504204 16.9268 0.592651C17.0282 0.682855 17.0918 0.81652 17.0918 0.984253C17.0918 3.51559 19.1563 5.56628 21.6885 5.56628C21.8534 5.5664 21.9842 5.63066 22.0723 5.7323C22.1586 5.83197 22.1992 5.96174 22.1992 6.08777C22.1992 6.21378 22.1586 6.34356 22.0723 6.44324C21.9842 6.54487 21.8534 6.60914 21.6885 6.60925C19.1134 6.60925 17.0918 8.60468 17.0918 11.1493C17.0918 11.4435 16.8645 11.6708 16.5703 11.6708C16.2923 11.6708 16.0488 11.4457 16.0488 11.1493C16.0488 8.64653 13.9992 6.60935 11.4668 6.60925C11.2991 6.60925 11.1654 6.54569 11.0752 6.44421C10.9867 6.3446 10.9443 6.21444 10.9443 6.08777C10.9444 5.96108 10.9867 5.83093 11.0752 5.73132C11.1654 5.62984 11.2991 5.56628 11.4668 5.56628C13.9984 5.56618 16.0488 3.51592 16.0488 0.984253C16.0488 0.81652 16.1124 0.682855 16.2139 0.592651C16.3135 0.504209 16.4436 0.462769 16.5703 0.462769ZM16.5693 3.35339C16.0083 4.56083 15.0417 5.52713 13.834 6.08777C15.0296 6.64791 16.006 7.61235 16.5684 8.79578C17.119 7.60034 18.0952 6.6351 19.291 6.08582C18.096 5.52411 17.1199 4.54904 16.5693 3.35339Z" fill="#666666" stroke="#666666" stroke-width="0.2"/>
</svg>
