<svg width="22" height="24" viewBox="0 0 22 24" fill="none" xmlns="http://www.w3.org/2000/svg">
<path d="M11 0C5.18445 0 0.453125 4.75233 0.453125 10.5938C0.453125 15.5297 3.8668 19.739 8.55523 20.8541L10.4122 23.6828C10.5422 23.8808 10.7631 24 11 24C11.2369 24 11.4578 23.8808 11.5878 23.6828L13.4448 20.8541C18.1335 19.7389 21.5469 15.5294 21.5469 10.5938C21.5469 4.75233 16.8155 0 11 0ZM12.8703 19.5415C12.6878 19.5795 12.5279 19.6883 12.4257 19.8441L11 22.0157L9.57434 19.8441C9.47206 19.6883 9.31213 19.5795 9.12969 19.5415C4.91698 18.6658 1.85938 14.9027 1.85938 10.5938C1.85938 5.52773 5.95986 1.40625 11 1.40625C16.0401 1.40625 20.1406 5.52773 20.1406 10.5938C20.1406 14.9027 17.083 18.6658 12.8703 19.5415Z" fill="#666666"/>
<path d="M18.3558 8.20364C18.2795 7.96875 18.0856 7.79114 17.8449 7.73573L13.7619 6.79584L11.6049 3.15712C11.4782 2.94347 11.2483 2.8125 11 2.8125C10.7516 2.8125 10.5218 2.94347 10.3951 3.15712L8.23815 6.79584L4.1551 7.73573C3.9144 7.79119 3.72048 7.9688 3.64416 8.20364C3.56785 8.43858 3.62035 8.6963 3.78249 8.88253L6.53476 12.0446L6.16674 16.2204C6.14509 16.4664 6.25407 16.7057 6.4539 16.8509C6.65363 16.9961 6.91491 17.0257 7.1423 16.9291L11 15.2888L14.8577 16.9291C15.0844 17.0257 15.346 16.9964 15.5461 16.8509C15.7459 16.7057 15.8549 16.4664 15.8333 16.2204L15.4652 12.0446L18.2175 8.88253C18.3796 8.6963 18.4321 8.43853 18.3558 8.20364ZM14.2082 11.3469C14.0828 11.491 14.0214 11.6799 14.0381 11.8702L14.3295 15.1765L11.2751 13.8777C11.0994 13.803 10.9006 13.8029 10.7249 13.8777L7.67045 15.1765L7.96182 11.8702C7.97856 11.6799 7.9172 11.491 7.79176 11.3469L5.61259 8.84325L8.8472 8.09869C9.0346 8.05552 9.19618 7.93748 9.29429 7.77197L11 4.8945L12.7057 7.77202C12.8038 7.93748 12.9654 8.05556 13.1528 8.09873L16.3874 8.8433L14.2082 11.3469Z" fill="#666666"/>
</svg>
