<svg width="24" height="24" viewBox="0 0 24 24" fill="none" xmlns="http://www.w3.org/2000/svg">
<path d="M7.94141 3.0498H16.0586C17.5376 3.04981 18.9298 3.83838 19.6904 5.10645L21.0137 7.31152L21.0283 7.33594H23.1426C23.588 7.33594 23.95 7.69718 23.9502 8.14258C23.9502 8.58811 23.5881 8.9502 23.1426 8.9502H22.1855L22.2461 9.03027L22.7598 9.71582C23.5273 10.7383 23.9502 12.0069 23.9502 13.2861V17.5713C23.9502 18.9613 22.8187 20.0927 21.4287 20.0928H19.7139C18.324 20.0925 17.1924 18.9612 17.1924 17.5713V17.5215H6.80762V17.5713C6.80762 18.9613 5.67604 20.0925 4.28613 20.0928H2.57129C1.18125 20.0927 0.0498047 18.9613 0.0498047 17.5713V13.2861C0.0498047 12.007 0.472726 10.7392 1.24023 9.71582L1.75391 9.03027L1.81445 8.9502H0.857422C0.411893 8.9502 0.0498047 8.58811 0.0498047 8.14258C0.0499553 7.69718 0.411986 7.33594 0.857422 7.33594H2.97168L2.98633 7.31152L4.30957 5.10645C5.07024 3.83838 6.4624 3.04981 7.94141 3.0498ZM20.3438 9.26465L19.7432 9.66504C18.7622 10.3187 17.6213 10.6641 16.4424 10.6641H7.55664C6.37859 10.6641 5.23772 10.3196 4.25684 9.66602L3.65527 9.26465L3.61621 9.23828L3.58789 9.27637L2.53125 10.6846C1.97201 11.4295 1.66406 12.354 1.66406 13.2861V17.5713C1.66406 18.0711 2.07145 18.4784 2.57129 18.4785H4.28613C4.78584 18.4783 5.19238 18.071 5.19238 17.5713V16.7139C5.19261 16.2685 5.55461 15.9072 6 15.9072H18.001C18.4463 15.9073 18.8074 16.2686 18.8076 16.7139V17.5713C18.8076 18.0711 19.2151 18.4784 19.7148 18.4785H21.4297C21.9295 18.4784 22.3369 18.0711 22.3369 17.5713V17.5215H22.335V13.2861C22.335 12.354 22.027 11.4295 21.4678 10.6846L20.4121 9.27637L20.3838 9.23828L20.3438 9.26465ZM7.94141 4.66406C7.04666 4.66407 6.20507 5.13062 5.72754 5.88379L5.72559 5.88184L5.69336 5.93652L4.54102 7.85742L4.5166 7.89844L4.55664 7.9248L5.15234 8.32227C5.86681 8.79825 6.69827 9.0498 7.55664 9.0498H16.4424C17.3017 9.0498 18.1332 8.79728 18.8477 8.32129L19.4434 7.9248L19.4834 7.89844L19.459 7.85742L18.3066 5.9375C17.8356 5.15194 16.9754 4.66411 16.0596 4.66406H7.94141Z" fill="#666666" stroke="white" stroke-width="0.1"/>
<path d="M19.7143 14.1429C20.1877 14.1429 20.5714 13.7591 20.5714 13.2857C20.5714 12.8123 20.1877 12.4286 19.7143 12.4286C19.2409 12.4286 18.8571 12.8123 18.8571 13.2857C18.8571 13.7591 19.2409 14.1429 19.7143 14.1429Z" fill="#666666"/>
<path d="M4.28572 14.1429C4.7591 14.1429 5.14286 13.7591 5.14286 13.2857C5.14286 12.8123 4.7591 12.4286 4.28572 12.4286C3.81233 12.4286 3.42857 12.8123 3.42857 13.2857C3.42857 13.7591 3.81233 14.1429 4.28572 14.1429Z" fill="#666666"/>
</svg>
