<svg width="26" height="24" viewBox="0 0 26 24" fill="none" xmlns="http://www.w3.org/2000/svg">
<path d="M12.5389 3.11548C12.768 2.83911 13.2309 2.83963 13.4608 3.11548C15.2124 5.21803 16.0936 7.48091 16.0936 9.74927C16.0936 12.0178 15.2126 14.2813 13.4608 16.384C13.3468 16.5208 13.1776 16.5999 12.9999 16.5999C12.8222 16.5998 12.6529 16.5208 12.5389 16.384C10.7872 14.2813 9.9071 12.0178 9.9071 9.74927C9.90718 7.48094 10.7874 5.21801 12.5389 3.11548ZM12.9999 4.47192C11.7271 6.19057 11.0936 7.97248 11.0936 9.75024C11.0937 11.5278 11.7273 13.3091 12.9999 15.0276C14.2725 13.3091 14.9061 11.5278 14.9061 9.75024C14.9061 7.97245 14.2727 6.1906 12.9999 4.47192Z" fill="#666666" stroke="#666666" stroke-width="0.2"/>
<path d="M14.2534 17.3219C14.3784 17.0159 14.7286 16.8689 15.0356 16.9948C15.3431 17.1197 15.4896 17.4701 15.3638 17.777C14.9246 18.8491 14.283 19.8937 13.4585 20.8824L13.4595 20.8834C13.3472 21.0209 13.1778 21.1001 13.0005 21.1002C12.823 21.1002 12.6535 21.0209 12.5396 20.8844C11.7158 19.8954 11.0736 18.8494 10.6343 17.777C10.5097 17.4703 10.6559 17.1198 10.9624 16.9948L11.0786 16.9596C11.3528 16.9081 11.6351 17.0538 11.7446 17.3219C12.0505 18.071 12.4714 18.8092 12.9985 19.525C13.5249 18.809 13.9465 18.0712 14.2534 17.3219Z" fill="#666666" stroke="#666666" stroke-width="0.2"/>
<path d="M21.4445 6.90259C21.5768 6.8881 21.7102 6.92184 21.8214 6.99243L21.9249 7.07544C22.0183 7.16969 22.0784 7.29188 22.0958 7.42212L22.0988 7.55396C21.8518 10.286 20.9699 12.4201 19.4552 13.9348C17.9408 15.4492 15.8042 16.3325 13.0675 16.5862L13.0685 16.5872C13.0449 16.5899 13.0233 16.5901 13.0089 16.5901C12.7408 16.5901 12.5071 16.4107 12.4337 16.1575L12.4122 16.0452C12.3823 15.7155 12.6248 15.4229 12.9552 15.3928C15.3161 15.1742 17.1337 14.4617 18.4357 13.2493C19.7118 12.0608 20.5011 10.3814 20.8146 8.18579C18.7061 8.49144 17.0588 9.24465 15.8986 10.4211H15.8976C15.6633 10.6566 15.2828 10.6609 15.049 10.427V10.426C14.8137 10.1932 14.8114 9.81525 15.0421 9.57935L15.0431 9.57837C16.5487 8.05164 18.7059 7.15624 21.4445 6.90356V6.90259Z" fill="#666666" stroke="#666666" stroke-width="0.2"/>
<path d="M19.4058 12.9703C21.2385 13.1782 23.0799 14.0458 24.8833 15.5436H24.8823C25.0203 15.6575 25.1 15.8269 25.1001 16.0045C25.1001 16.1825 25.0214 16.3511 24.8833 16.4655L24.8843 16.4664C22.7786 18.221 20.6456 19.106 18.5063 19.1061C16.5395 19.1061 14.5773 18.3586 12.6353 16.8727C12.371 16.6719 12.3224 16.2952 12.522 16.0319L12.5229 16.0309C12.7257 15.7671 13.1013 15.7194 13.3638 15.9196L13.689 16.1608C15.3124 17.3269 16.9102 17.9055 18.5015 17.9069C20.164 17.9082 21.8316 17.2779 23.5298 16.0065C21.9901 14.8585 20.4563 14.2325 18.9604 14.1344C18.63 14.1127 18.3805 13.8271 18.4009 13.4967V13.4957C18.4236 13.1694 18.6804 12.9145 19.0396 12.9371L19.4058 12.9703Z" fill="#666666" stroke="#666666" stroke-width="0.2"/>
<path d="M6.96094 12.9379C7.31507 12.9132 7.57725 13.1698 7.59863 13.4965C7.62021 13.8262 7.37051 14.1135 7.03906 14.1351C5.54233 14.2334 4.00842 14.8592 2.46973 16.0062C4.16714 17.2779 5.83509 17.908 7.49805 17.9066C9.19569 17.9051 10.9011 17.2468 12.6367 15.9193C12.8991 15.7195 13.2757 15.7673 13.4775 16.0316C13.6777 16.2943 13.6283 16.6708 13.3643 16.8724C11.4224 18.3572 9.46191 19.1058 7.49414 19.1058C5.48837 19.1058 3.48807 18.3286 1.51074 16.7855L1.11621 16.4672C0.97781 16.3528 0.900476 16.1833 0.900391 16.0052C0.900391 15.8276 0.979325 15.6583 1.11719 15.5443L1.47852 15.2533C3.28649 13.8397 5.12881 13.0577 6.95996 12.9379H6.96094Z" fill="#666666" stroke="#666666" stroke-width="0.2"/>
<path d="M4.55652 6.90259L4.55554 6.90356C7.29465 7.15512 9.45109 8.05151 10.9579 9.57837L10.9589 9.57935C11.1898 9.81542 11.1868 10.1933 10.951 10.426C10.7165 10.6594 10.3369 10.657 10.1034 10.4211H10.1024C8.94205 9.24452 7.29345 8.49225 5.18445 8.18579C5.49747 10.3814 6.28712 12.0608 7.56335 13.2493C8.86547 14.4618 10.6838 15.1741 13.0448 15.3928C13.3748 15.4228 13.6188 15.715 13.5878 16.0452C13.559 16.356 13.2973 16.5901 12.9911 16.5901C12.9759 16.5901 12.9546 16.59 12.9315 16.5872V16.5862C10.1959 16.3323 8.05979 15.4488 6.54578 13.9348C5.0311 12.42 4.14922 10.2855 3.90222 7.55396L3.9032 7.55298C3.8868 7.37625 3.95089 7.20073 4.07605 7.07544C4.20118 6.95031 4.37585 6.88325 4.55652 6.90259Z" fill="#666666" stroke="#666666" stroke-width="0.2"/>
</svg>
