<svg width="24" height="24" viewBox="0 0 24 24" fill="none" xmlns="http://www.w3.org/2000/svg">
<path d="M23.2969 11.2969H22.351C22.7857 10.4329 23.0156 9.473 23.0156 8.47771C23.0156 6.79977 22.3622 5.22224 21.1757 4.03574C19.9892 2.84924 18.4117 2.1958 16.7338 2.1958C15.0558 2.1958 13.4783 2.84924 12.2918 4.03574L12 4.32754L11.7082 4.03579C10.5217 2.84929 8.94422 2.19585 7.26623 2.19585C5.58825 2.19585 4.01077 2.84929 2.82427 4.03574C1.63781 5.22224 0.984375 6.79977 0.984375 8.47771C0.984375 9.47296 1.2143 10.4329 1.64897 11.2969H0.703125C0.314812 11.2969 0 11.6117 0 12C0 12.3883 0.314812 12.7031 0.703125 12.7031H2.61778C2.68477 12.7766 2.75353 12.8489 2.82431 12.9197L11.5028 21.5982C11.6401 21.7355 11.8201 21.8042 12 21.8042C12.1799 21.8042 12.3599 21.7355 12.4972 21.5982L21.1757 12.9197C21.2465 12.8489 21.3152 12.7766 21.3822 12.7031H23.2969C23.6852 12.7031 24 12.3883 24 12C24 11.6117 23.6852 11.2969 23.2969 11.2969ZM2.39062 8.47771C2.39062 7.17538 2.89777 5.951 3.81867 5.0301C4.73953 4.10919 5.96391 3.60205 7.26623 3.60205C8.56856 3.60205 9.79294 4.10919 10.7138 5.0301L11.5028 5.81905C11.7773 6.09364 12.2226 6.09364 12.4972 5.81905L13.2861 5.0301C14.207 4.10919 15.4314 3.60205 16.7337 3.60205C18.036 3.60205 19.2604 4.10919 20.1813 5.0301C21.1022 5.951 21.6094 7.17538 21.6094 8.47771C21.6094 9.5023 21.2953 10.4786 20.7129 11.2969H17.0276L15.4534 8.81127C15.3215 8.603 15.0904 8.47935 14.8437 8.48455C14.5973 8.49004 14.3717 8.62414 14.2492 8.83808L11.9441 12.8628L8.97094 6.99472C8.84709 6.75027 8.59153 6.59966 8.31867 6.60983C8.04483 6.61958 7.80159 6.78758 7.69547 7.04024L5.9077 11.2969H3.28706C2.70473 10.4786 2.39062 9.50235 2.39062 8.47771ZM12 20.1066L4.59647 12.7031H6.375C6.65812 12.7031 6.91364 12.5333 7.02328 12.2723L8.40347 8.98611L11.2791 14.6616C11.3959 14.8922 11.6298 15.0401 11.8883 15.0467C11.8943 15.0468 11.9003 15.0469 11.9063 15.0469C12.1579 15.0469 12.3909 14.9123 12.5164 14.6932L14.8897 10.5495L16.0466 12.3763C16.1755 12.5797 16.3997 12.7031 16.6406 12.7031H19.4035L12 20.1066Z" fill="#666666"/>
</svg>
