<svg width="25" height="24" viewBox="0 0 25 24" fill="none" xmlns="http://www.w3.org/2000/svg">
<g clip-path="url(#clip0_14_1778)">
<path d="M21.437 3.04273C21.4059 2.95412 21.335 2.8852 21.2456 2.85652L16.5855 1.36225C16.554 1.35217 16.5245 1.33691 16.4979 1.31741C15.3428 0.471303 13.936 0.00872803 12.5 0.00872803C11.0253 0.00872803 9.64145 0.489458 8.51437 1.31361C8.48781 1.33303 8.45837 1.34822 8.42703 1.35827L3.75449 2.85652C3.66505 2.8852 3.5942 2.95412 3.56306 3.04273L0.542479 11.6379C0.515345 11.7151 0.520932 11.8 0.557945 11.873L0.635699 12.0264C0.659072 12.0725 1.22449 13.1661 2.6196 14.0401C3.93434 14.8638 5.39606 15.1368 6.75623 15.1367C6.96284 15.1367 7.05358 15.3935 6.87748 15.5015C5.96217 16.0632 4.89747 16.3727 3.79241 16.3727H3.74476C3.57907 16.3727 3.44476 16.5071 3.44476 16.6727V17.478C3.44476 17.6437 3.57907 17.778 3.74476 17.778H3.79241C5.71566 17.778 7.54027 17.0206 8.89099 15.7036C9.05157 15.547 9.32486 15.5987 9.39161 15.8128C9.54616 16.3085 9.65072 16.8223 9.70268 17.3486L10.3319 23.7208C10.347 23.8743 10.4762 23.9913 10.6304 23.9913H14.4204C14.5747 23.9913 14.7038 23.8743 14.719 23.7208L15.3482 17.3486C15.3977 16.8474 15.495 16.3575 15.6377 15.8838C15.7022 15.6695 15.9742 15.6147 16.1365 15.7689C17.4801 17.0455 19.2755 17.778 21.1666 17.778H21.2142C21.3799 17.778 21.5142 17.6437 21.5142 17.478V16.6727C21.5142 16.5071 21.3799 16.3727 21.2142 16.3727H21.1666C20.0725 16.3727 19.0179 16.0693 18.1088 15.5181C17.9243 15.4063 18.0192 15.1384 18.2349 15.1384C20.1441 15.1384 21.4988 14.5925 22.3804 14.0401C23.7755 13.1661 24.3409 12.0725 24.3644 12.0264L24.4421 11.873C24.4791 11.8 24.4847 11.7151 24.4576 11.6379L21.437 3.04273ZM3.43342 12.891C2.78827 12.5005 2.36819 12.0512 2.1309 11.746C2.07096 11.6689 2.05711 11.5664 2.08948 11.4742L4.65726 4.16757C4.68841 4.07896 4.75925 4.01004 4.84869 3.98137L5.89684 3.64528C6.15784 3.5616 6.39642 3.84951 6.28802 4.10125C6.10155 4.5343 5.95853 4.99201 5.86494 5.46946L5.04057 9.67483C5.0227 9.76596 5.04805 9.86022 5.1092 9.9301L7.84304 13.0542C7.89203 13.1102 7.94011 13.1668 7.98729 13.224C8.12974 13.3966 8.02426 13.6513 7.80186 13.6766C6.08467 13.8717 4.61946 13.6089 3.43342 12.891ZM13.9498 17.2105L13.4457 22.3156C13.4305 22.4691 13.3014 22.5861 13.1471 22.5861H11.9038C11.7495 22.5861 11.6204 22.4691 11.6052 22.3155L11.1012 17.2105C10.9142 15.3175 10.1533 13.5602 8.90057 12.1287L6.6209 9.52361C6.55975 9.45373 6.53441 9.35947 6.55227 9.26834L7.24394 5.73969C7.7353 3.23313 9.94583 1.41387 12.5001 1.41387C13.7268 1.41387 14.9268 1.84007 15.8787 2.61393C16.8307 3.3878 17.4929 4.4754 17.7434 5.67636L18.493 9.27047C18.5123 9.36262 18.4871 9.45845 18.4251 9.52929L16.1504 12.1287C14.8976 13.5603 14.1367 15.3176 13.9498 17.2105ZM21.5666 12.891C20.3916 13.6022 18.9424 13.8664 17.2458 13.6816C17.0229 13.6573 16.9166 13.4023 17.0592 13.2293C17.1077 13.1703 17.1573 13.1119 17.2078 13.0542L19.9436 9.92786C20.0056 9.85702 20.0307 9.76119 20.0115 9.66904L19.1189 5.38955C19.0262 4.9453 18.8888 4.51339 18.7107 4.10012C18.6023 3.84858 18.8407 3.56118 19.1015 3.64482L20.1514 3.98146C20.2408 4.01014 20.3116 4.07905 20.3428 4.16767L22.9105 11.4743C22.9429 11.5664 22.929 11.6689 22.8691 11.746C22.6318 12.0512 22.2117 12.5004 21.5666 12.891Z" fill="#666666"/>
</g>
<defs>
<clipPath id="clip0_14_1778">
<rect width="24" height="24" fill="white" transform="translate(0.5)"/>
</clipPath>
</defs>
</svg>
